<?xml version="1.0" encoding="UTF-8" standalone="no"?>
<svg
   xmlns:dc="http://purl.org/dc/elements/1.1/"
   xmlns:cc="http://creativecommons.org/ns#"
   xmlns:rdf="http://www.w3.org/1999/02/22-rdf-syntax-ns#"
   xmlns:svg="http://www.w3.org/2000/svg"
   xmlns="http://www.w3.org/2000/svg"
   version="1.1"
   viewBox="0 0 79.108337 79.108337"
   height="79.108337mm"
   width="79.108337mm">
  <g
     transform="translate(217.1375,-244.52918)"
     style="display:none">
    <g>
      <g
         style="font-style:normal;font-weight:normal;font-size:90.42823029px;line-height:0%;font-family:Sans;letter-spacing:0px;word-spacing:0px;fill:#d40000;fill-opacity:1;stroke:none;stroke-width:0.26458332px;stroke-linecap:butt;stroke-linejoin:miter;stroke-opacity:1"
         transform="scale(1.0507459,0.95170488)"
         aria-label="X">
        <g>
          <rect
             transform="scale(0.95170489,1.0507459)"
             y="246.72916"
             x="-214.9375"
             height="74.708336"
             width="74.708336"
             style="display:inline;opacity:1;vector-effect:none;fill:#ffff00;fill-opacity:1;stroke:#000000;stroke-width:4.4000001;stroke-linecap:round;stroke-linejoin:miter;stroke-miterlimit:4;stroke-dasharray:none;stroke-dashoffset:0;stroke-opacity:1;paint-order:fill markers stroke" />
          <path
             d="m -141.01302,265.62643 -22.69537,32.49764 22.65122,33.24827 h -10.11136 l -17.92669,-27.06665 -18.36824,27.06665 h -9.53735 l 22.91614,-32.85088 -22.38629,-32.89503 h 10.06721 l 17.70592,26.71342 18.1033,-26.71342 z"
             style="font-size:90.42823029px;fill:#d40000;stroke-width:0.26458332px"/>
        </g>
      </g>
    </g>
  </g>
  <g
     transform="translate(217.1375,-244.52918)"
     style="display:inline">
    <circle
       r="37.354168"
       cy="284.08334"
       cx="-177.58333"
       style="opacity:1;vector-effect:none;fill:#ffff00;fill-opacity:1;stroke:#000000;stroke-width:4.4000001;stroke-linecap:round;stroke-linejoin:miter;stroke-miterlimit:4;stroke-dasharray:none;stroke-dashoffset:0;stroke-opacity:1;paint-order:fill markers stroke" />
    <g
       transform="matrix(0.88518302,0,0,0.88518302,-20.328214,32.617581)"
       style="font-style:normal;font-weight:normal;font-size:50.79999924px;line-height:0%;font-family:Sans;letter-spacing:0px;word-spacing:0px;fill:#000000;fill-opacity:1;stroke:none;stroke-width:0.26458332px;stroke-linecap:butt;stroke-linejoin:miter;stroke-opacity:1"
       aria-label="F1">
      <path
         style="font-size:50.79999924px;stroke-width:0.26458332px"
         d="m -179.00835,270.0439 h -18.67793 v 10.41797 h 16.04863 v 4.36563 h -16.04863 v 17.78496 h -4.91133 v -36.93418 h 23.58926 z" />
      <path
         style="font-size:50.79999924px;stroke-width:0.26458332px"
         d="m -151.49995,302.61246 h -19.99258 v -3.77032 h 7.68945 v -24.75507 h -7.68945 v -3.37344 q 1.56269,0 3.34863,-0.24805 1.78594,-0.27285 2.70371,-0.76894 1.14102,-0.62012 1.78594,-1.5627 0.66973,-0.96738 0.76894,-2.57969 h 3.84473 v 33.28789 h 7.54063 z" />
    </g>
  </g>
</svg>
